<mxfile host="app.diagrams.net" modified="2023-07-19T06:17:20.437Z" agent="Mozilla/5.0 (Windows NT 10.0; Win64; x64) AppleWebKit/537.36 (KHTML, like Gecko) Chrome/114.0.0.0 Safari/537.36" version="21.6.2" etag="VXDM9Wk66RPsvaYmr3zf" type="github">
  <diagram name="Page-1" id="zm2zy-MMI9C2YB9Yqg1-">
    <mxGraphModel>
      <root>
        <mxCell id="0" />
        <mxCell id="1" parent="0" />
      </root>
    </mxGraphModel>
  </diagram>
</mxfile>
